<svg width="2501" height="842" viewBox="0 0 2501 842" fill="none" xmlns="http://www.w3.org/2000/svg">
<rect width="2501" height="842" fill="#515151"/>
<path d="M1699 0H2501V842H1315L1699 0Z" fill="#FF929B"/>
<path d="M1864.94 540.561H1697.63V512.021L1780.51 421.616C1792.48 408.286 1800.96 397.177 1805.98 388.291C1811.1 379.29 1813.67 370.289 1813.67 361.289C1813.67 349.44 1810.31 339.869 1803.58 332.578C1796.98 325.286 1788.03 321.64 1776.75 321.64C1763.31 321.64 1752.89 325.742 1745.48 333.945C1738.07 342.148 1734.37 353.37 1734.37 367.612H1692.84C1692.84 352.459 1696.26 338.844 1703.1 326.767C1710.05 314.576 1719.9 305.12 1732.66 298.398C1745.54 291.676 1760.35 288.315 1777.1 288.315C1801.25 288.315 1820.28 294.41 1834.18 306.601C1848.19 318.678 1855.2 335.426 1855.2 356.845C1855.2 369.264 1851.66 382.309 1844.6 395.981C1837.65 409.539 1826.2 424.977 1810.25 442.294L1749.41 507.407H1864.94V540.561ZM2058.74 435.8C2058.74 471.575 2052.01 498.577 2038.57 516.806C2025.24 534.921 2004.9 543.979 1977.56 543.979C1950.67 543.979 1930.39 535.149 1916.72 517.49C1903.16 499.716 1896.21 473.455 1895.87 438.706V395.639C1895.87 359.864 1902.54 333.033 1915.87 315.146C1929.31 297.259 1949.76 288.315 1977.22 288.315C2004.45 288.315 2024.73 297.031 2038.06 314.462C2051.5 331.894 2058.39 357.985 2058.74 392.734V435.8ZM2017.21 389.316C2017.21 365.96 2014.02 348.87 2007.64 338.046C2001.26 327.109 1991.12 321.64 1977.22 321.64C1963.66 321.64 1953.69 326.824 1947.31 337.192C1940.93 347.446 1937.57 363.51 1937.23 385.385V441.782C1937.23 465.024 1940.47 482.342 1946.97 493.735C1953.46 505.128 1963.66 510.825 1977.56 510.825C1990.89 510.825 2000.74 505.584 2007.12 495.102C2013.51 484.506 2016.87 467.986 2017.21 445.542V389.316ZM2093.77 339.584C2093.77 324.545 2098.61 312.241 2108.3 302.67C2117.98 292.986 2130.68 288.144 2146.41 288.144C2162.36 288.144 2175.12 292.986 2184.69 302.67C2194.37 312.241 2199.21 324.83 2199.21 340.439V352.744C2199.21 367.669 2194.37 379.917 2184.69 389.487C2175.12 399.057 2162.47 403.842 2146.75 403.842C2131.37 403.842 2118.66 399.171 2108.64 389.829C2098.73 380.372 2093.77 367.669 2093.77 351.718V339.584ZM2122.82 352.744C2122.82 360.605 2124.99 366.985 2129.32 371.884C2133.76 376.669 2139.57 379.062 2146.75 379.062C2153.81 379.062 2159.51 376.669 2163.84 371.884C2168.17 366.985 2170.33 360.377 2170.33 352.06V339.584C2170.33 331.723 2168.11 325.343 2163.67 320.444C2159.34 315.545 2153.58 313.095 2146.41 313.095C2139.23 313.095 2133.48 315.602 2129.15 320.615C2124.93 325.514 2122.82 332.008 2122.82 340.097V352.744ZM2213.4 479.55C2213.4 464.283 2218.36 451.922 2228.27 442.465C2238.18 433.009 2250.83 428.281 2266.21 428.281C2281.7 428.281 2294.35 433.009 2304.15 442.465C2314.06 451.922 2319.01 464.682 2319.01 480.747V492.88C2319.01 507.692 2314.23 519.939 2304.66 529.624C2295.2 539.194 2282.5 543.979 2266.55 543.979C2250.6 543.979 2237.72 539.251 2227.93 529.794C2218.24 520.224 2213.4 507.635 2213.4 492.026V479.55ZM2242.45 492.88C2242.45 500.628 2244.67 507.008 2249.12 512.021C2253.67 516.92 2259.49 519.37 2266.55 519.37C2273.84 519.37 2279.54 517.034 2283.64 512.363C2287.85 507.578 2289.96 500.913 2289.96 492.368V479.55C2289.96 471.575 2287.74 465.195 2283.3 460.41C2278.85 455.625 2273.16 453.232 2266.21 453.232C2259.14 453.232 2253.39 455.625 2248.95 460.41C2244.62 465.195 2242.45 471.803 2242.45 480.234V492.88ZM2155.29 521.933L2133.93 509.628L2255.44 315.146L2276.8 327.451L2155.29 521.933Z" fill="white"/>
<path d="M169.435 202.779H150.904L103.37 127.12V202.779H84.8398V96.1387H103.37L151.051 172.091V96.1387H169.435V202.779ZM207.154 132.174C212.965 125.436 220.313 122.066 229.2 122.066C246.095 122.066 254.664 131.71 254.908 150.997V202.779H237.11V151.656C237.11 146.188 235.914 142.33 233.521 140.084C231.178 137.789 227.711 136.642 223.121 136.642C215.992 136.642 210.67 139.815 207.154 146.163V202.779H189.356V90.2793H207.154V132.174ZM320.313 202.779C319.532 201.266 318.849 198.8 318.263 195.382C312.599 201.29 305.665 204.244 297.462 204.244C289.503 204.244 283.009 201.974 277.979 197.433C272.95 192.892 270.436 187.276 270.436 180.587C270.436 172.14 273.561 165.67 279.811 161.178C286.109 156.637 295.094 154.366 306.764 154.366H317.677V149.166C317.677 145.064 316.529 141.793 314.234 139.352C311.939 136.861 308.448 135.616 303.761 135.616C299.708 135.616 296.388 136.642 293.8 138.692C291.212 140.694 289.918 143.258 289.918 146.383H272.12C272.12 142.037 273.561 137.984 276.441 134.225C279.322 130.416 283.229 127.438 288.16 125.289C293.141 123.141 298.683 122.066 304.786 122.066C314.063 122.066 321.461 124.41 326.979 129.098C332.496 133.736 335.328 140.279 335.475 148.727V184.469C335.475 191.598 336.476 197.286 338.478 201.534V202.779H320.313ZM300.758 189.962C304.273 189.962 307.569 189.107 310.646 187.398C313.771 185.689 316.114 183.395 317.677 180.514V165.572H308.082C301.49 165.572 296.534 166.72 293.214 169.015C289.894 171.31 288.233 174.557 288.233 178.756C288.233 182.174 289.356 184.908 291.603 186.959C293.897 188.961 296.949 189.962 300.758 189.962ZM330.641 110.567V111.373H316.358L305.372 99.9473L294.459 111.373H280.323V110.421L300.172 90.2061H310.646L330.641 110.567ZM289.332 219.918C289.332 217.33 290.187 215.157 291.896 213.399C293.653 211.69 296.144 210.836 299.366 210.836C302.589 210.836 305.079 211.69 306.837 213.399C308.595 215.157 309.474 217.33 309.474 219.918C309.474 222.506 308.595 224.654 306.837 226.363C305.079 228.072 302.589 228.927 299.366 228.927C296.144 228.927 293.653 228.072 291.896 226.363C290.187 224.654 289.332 222.506 289.332 219.918ZM423.512 163.961C423.512 176.217 420.729 186.007 415.162 193.331C409.596 200.606 402.125 204.244 392.75 204.244C384.059 204.244 377.101 201.388 371.876 195.675V233.248H354.078V123.531H370.484L371.217 131.588C376.441 125.24 383.546 122.066 392.53 122.066C402.198 122.066 409.767 125.68 415.235 132.906C420.753 140.084 423.512 150.069 423.512 162.862V163.961ZM405.787 162.423C405.787 154.513 404.2 148.238 401.026 143.6C397.901 138.961 393.409 136.642 387.55 136.642C380.274 136.642 375.05 139.645 371.876 145.65V180.807C375.099 186.959 380.372 190.035 387.696 190.035C393.36 190.035 397.779 187.765 400.953 183.224C404.176 178.634 405.787 171.7 405.787 162.423ZM492.506 123.531L493.019 132.687C498.878 125.606 506.568 122.066 516.09 122.066C532.594 122.066 540.992 131.515 541.285 150.411V202.779H523.487V151.437C523.487 146.407 522.389 142.696 520.191 140.304C518.043 137.862 514.503 136.642 509.571 136.642C502.394 136.642 497.047 139.889 493.531 146.383V202.779H475.733V123.531H492.506ZM556.373 162.569C556.373 150.265 559.254 140.45 565.016 133.126C570.826 125.753 578.517 122.066 588.087 122.066C597.12 122.066 604.225 125.216 609.4 131.515L610.206 123.531H626.246V200.362C626.246 210.763 622.999 218.966 616.505 224.972C610.06 230.978 601.344 233.98 590.357 233.98C584.547 233.98 578.858 232.76 573.292 230.318C567.774 227.926 563.575 224.776 560.694 220.87L569.117 210.177C574.586 216.671 581.324 219.918 589.332 219.918C595.24 219.918 599.903 218.307 603.321 215.084C606.739 211.91 608.448 207.223 608.448 201.021V195.675C603.321 201.388 596.485 204.244 587.94 204.244C578.663 204.244 571.07 200.558 565.162 193.185C559.303 185.812 556.373 175.606 556.373 162.569ZM574.098 164.107C574.098 172.066 575.709 178.341 578.932 182.931C582.203 187.472 586.72 189.742 592.481 189.742C599.659 189.742 604.981 186.666 608.448 180.514V145.65C605.079 139.645 599.806 136.642 592.628 136.642C586.769 136.642 582.203 138.961 578.932 143.6C575.709 148.238 574.098 155.074 574.098 164.107ZM691.944 202.779C691.163 201.266 690.479 198.8 689.894 195.382C684.229 201.29 677.296 204.244 669.093 204.244C661.134 204.244 654.64 201.974 649.61 197.433C644.581 192.892 642.066 187.276 642.066 180.587C642.066 172.14 645.191 165.67 651.441 161.178C657.74 156.637 666.725 154.366 678.395 154.366H689.308V149.166C689.308 145.064 688.16 141.793 685.865 139.352C683.57 136.861 680.079 135.616 675.392 135.616C671.339 135.616 668.019 136.642 665.431 138.692C662.843 140.694 661.549 143.258 661.549 146.383H643.751C643.751 142.037 645.191 137.984 648.072 134.225C650.953 130.416 654.859 127.438 659.791 125.289C664.771 123.141 670.313 122.066 676.417 122.066C685.694 122.066 693.092 124.41 698.609 129.098C704.127 133.736 706.959 140.279 707.105 148.727V184.469C707.105 191.598 708.106 197.286 710.108 201.534V202.779H691.944ZM672.389 189.962C675.904 189.962 679.2 189.107 682.276 187.398C685.401 185.689 687.745 183.395 689.308 180.514V165.572H679.713C673.121 165.572 668.165 166.72 664.845 169.015C661.524 171.31 659.864 174.557 659.864 178.756C659.864 182.174 660.987 184.908 663.233 186.959C665.528 188.961 668.58 189.962 672.389 189.962ZM752.296 177.291L768.409 123.531H787.379L755.885 214.791C751.051 228.121 742.848 234.786 731.275 234.786C728.688 234.786 725.831 234.347 722.706 233.468V219.698L726.075 219.918C730.567 219.918 733.937 219.088 736.183 217.428C738.478 215.816 740.284 213.082 741.603 209.225L744.166 202.413L716.334 123.531H735.523L752.296 177.291Z" fill="white"/>
<path d="M123.375 751.189C121.318 753.872 118.466 755.903 114.82 757.283C111.174 758.663 107.034 759.354 102.398 759.354C97.6328 759.354 93.4141 758.273 89.7422 756.111C86.0703 753.95 83.2318 750.864 81.2266 746.854C79.2474 742.817 78.2188 738.117 78.1406 732.752V728.299C78.1406 719.705 80.1979 712.999 84.3125 708.182C88.4271 703.338 94.1693 700.916 101.539 700.916C107.867 700.916 112.893 702.479 116.617 705.604C120.341 708.729 122.581 713.234 123.336 719.119H113.648C112.555 712.27 108.583 708.846 101.734 708.846C97.3073 708.846 93.9349 710.447 91.6172 713.65C89.3255 716.827 88.1406 721.502 88.0625 727.674V732.049C88.0625 738.195 89.3516 742.973 91.9297 746.385C94.5339 749.77 98.1406 751.463 102.75 751.463C107.802 751.463 111.396 750.317 113.531 748.025V736.893H101.812V729.393H123.375V751.189ZM143.414 758.572H133.922V716.307H143.414V758.572ZM133.336 705.33C133.336 703.872 133.792 702.661 134.703 701.697C135.641 700.734 136.969 700.252 138.688 700.252C140.406 700.252 141.734 700.734 142.672 701.697C143.609 702.661 144.078 703.872 144.078 705.33C144.078 706.762 143.609 707.96 142.672 708.924C141.734 709.861 140.406 710.33 138.688 710.33C136.969 710.33 135.641 709.861 134.703 708.924C133.792 707.96 133.336 706.762 133.336 705.33ZM179.039 758.572C178.622 757.765 178.258 756.45 177.945 754.627C174.924 757.778 171.227 759.354 166.852 759.354C162.607 759.354 159.143 758.143 156.461 755.721C153.779 753.299 152.438 750.304 152.438 746.736C152.438 742.231 154.104 738.781 157.438 736.385C160.797 733.963 165.589 732.752 171.812 732.752H177.633V729.979C177.633 727.791 177.021 726.046 175.797 724.744C174.573 723.416 172.711 722.752 170.211 722.752C168.049 722.752 166.279 723.299 164.898 724.393C163.518 725.46 162.828 726.827 162.828 728.494H153.336C153.336 726.176 154.104 724.015 155.641 722.01C157.177 719.979 159.26 718.39 161.891 717.244C164.547 716.098 167.503 715.525 170.758 715.525C175.706 715.525 179.651 716.775 182.594 719.275C185.536 721.749 187.047 725.239 187.125 729.744V748.807C187.125 752.609 187.659 755.643 188.727 757.908V758.572H179.039ZM168.609 751.736C170.484 751.736 172.242 751.281 173.883 750.369C175.549 749.458 176.799 748.234 177.633 746.697V738.729H172.516C169 738.729 166.357 739.34 164.586 740.564C162.815 741.788 161.93 743.52 161.93 745.76C161.93 747.583 162.529 749.041 163.727 750.135C164.951 751.202 166.578 751.736 168.609 751.736ZM167.672 709.354L167.398 703.65C169.299 703.52 170.667 703.273 171.5 702.908C172.359 702.544 172.789 701.906 172.789 700.994C172.789 699.119 170.836 698.182 166.93 698.182L167.203 693.377C171.604 693.377 174.911 694.054 177.125 695.408C179.365 696.762 180.484 698.585 180.484 700.877C180.484 702.439 179.977 703.729 178.961 704.744C177.945 705.76 176.5 706.398 174.625 706.658V709.354H167.672ZM205.992 716.307L206.266 720.721C209.234 717.257 213.297 715.525 218.453 715.525C224.104 715.525 227.971 717.687 230.055 722.01C233.128 717.687 237.451 715.525 243.023 715.525C247.685 715.525 251.148 716.814 253.414 719.393C255.706 721.971 256.878 725.773 256.93 730.799V758.572H247.438V731.072C247.438 728.39 246.852 726.424 245.68 725.174C244.508 723.924 242.568 723.299 239.859 723.299C237.698 723.299 235.927 723.885 234.547 725.057C233.193 726.202 232.242 727.713 231.695 729.588L231.734 758.572H222.242V730.76C222.112 725.786 219.573 723.299 214.625 723.299C210.823 723.299 208.128 724.848 206.539 727.947V758.572H197.047V716.307H205.992ZM284.938 737.127C284.938 730.564 286.474 725.33 289.547 721.424C292.646 717.492 296.747 715.525 301.852 715.525C306.669 715.525 310.458 717.205 313.219 720.564L313.648 716.307H322.203V757.283C322.203 762.83 320.471 767.205 317.008 770.408C313.57 773.611 308.922 775.213 303.062 775.213C299.964 775.213 296.93 774.562 293.961 773.26C291.018 771.984 288.779 770.304 287.242 768.221L291.734 762.518C294.651 765.981 298.245 767.713 302.516 767.713C305.667 767.713 308.154 766.854 309.977 765.135C311.799 763.442 312.711 760.942 312.711 757.635V754.783C309.977 757.83 306.331 759.354 301.773 759.354C296.826 759.354 292.776 757.387 289.625 753.455C286.5 749.523 284.938 744.08 284.938 737.127ZM294.391 737.947C294.391 742.192 295.25 745.538 296.969 747.986C298.714 750.408 301.122 751.619 304.195 751.619C308.023 751.619 310.862 749.979 312.711 746.697V728.104C310.914 724.9 308.102 723.299 304.273 723.299C301.148 723.299 298.714 724.536 296.969 727.01C295.25 729.484 294.391 733.13 294.391 737.947ZM342.086 758.572H332.594V716.307H342.086V758.572ZM332.008 705.33C332.008 703.872 332.464 702.661 333.375 701.697C334.312 700.734 335.641 700.252 337.359 700.252C339.078 700.252 340.406 700.734 341.344 701.697C342.281 702.661 342.75 703.872 342.75 705.33C342.75 706.762 342.281 707.96 341.344 708.924C340.406 709.861 339.078 710.33 337.359 710.33C335.641 710.33 334.312 709.861 333.375 708.924C332.464 707.96 332.008 706.762 332.008 705.33ZM377.711 758.572C377.294 757.765 376.93 756.45 376.617 754.627C373.596 757.778 369.898 759.354 365.523 759.354C361.279 759.354 357.815 758.143 355.133 755.721C352.451 753.299 351.109 750.304 351.109 746.736C351.109 742.231 352.776 738.781 356.109 736.385C359.469 733.963 364.26 732.752 370.484 732.752H376.305V729.979C376.305 727.791 375.693 726.046 374.469 724.744C373.245 723.416 371.383 722.752 368.883 722.752C366.721 722.752 364.951 723.299 363.57 724.393C362.19 725.46 361.5 726.827 361.5 728.494H352.008C352.008 726.176 352.776 724.015 354.312 722.01C355.849 719.979 357.932 718.39 360.562 717.244C363.219 716.098 366.174 715.525 369.43 715.525C374.378 715.525 378.323 716.775 381.266 719.275C384.208 721.749 385.719 725.239 385.797 729.744V748.807C385.797 752.609 386.331 755.643 387.398 757.908V758.572H377.711ZM367.281 751.736C369.156 751.736 370.914 751.281 372.555 750.369C374.221 749.458 375.471 748.234 376.305 746.697V738.729H371.188C367.672 738.729 365.029 739.34 363.258 740.564C361.487 741.788 360.602 743.52 360.602 745.76C360.602 747.583 361.201 749.041 362.398 750.135C363.622 751.202 365.25 751.736 367.281 751.736ZM372.555 698.572H383.375L372.555 710.408H364.938L372.555 698.572ZM453.297 758.572H415.055V752.049L434 731.385C436.734 728.338 438.674 725.799 439.82 723.768C440.992 721.71 441.578 719.653 441.578 717.596C441.578 714.887 440.81 712.7 439.273 711.033C437.763 709.367 435.719 708.533 433.141 708.533C430.068 708.533 427.685 709.471 425.992 711.346C424.299 713.221 423.453 715.786 423.453 719.041H413.961C413.961 715.577 414.742 712.465 416.305 709.705C417.893 706.919 420.146 704.757 423.062 703.221C426.005 701.684 429.391 700.916 433.219 700.916C438.74 700.916 443.089 702.309 446.266 705.096C449.469 707.856 451.07 711.684 451.07 716.58C451.07 719.419 450.263 722.4 448.648 725.525C447.06 728.624 444.443 732.153 440.797 736.111L426.891 750.994H453.297V758.572ZM497.594 734.627C497.594 742.804 496.057 748.976 492.984 753.143C489.938 757.283 485.289 759.354 479.039 759.354C472.893 759.354 468.258 757.335 465.133 753.299C462.034 749.236 460.445 743.234 460.367 735.291V725.447C460.367 717.27 461.891 711.137 464.938 707.049C468.01 702.96 472.685 700.916 478.961 700.916C485.185 700.916 489.82 702.908 492.867 706.893C495.94 710.877 497.516 716.84 497.594 724.783V734.627ZM488.102 724.002C488.102 718.663 487.372 714.757 485.914 712.283C484.456 709.783 482.138 708.533 478.961 708.533C475.862 708.533 473.583 709.718 472.125 712.088C470.667 714.432 469.898 718.104 469.82 723.104V735.994C469.82 741.307 470.562 745.265 472.047 747.869C473.531 750.473 475.862 751.775 479.039 751.775C482.086 751.775 484.339 750.577 485.797 748.182C487.255 745.76 488.023 741.984 488.102 736.854V724.002ZM505.602 712.635C505.602 709.197 506.708 706.385 508.922 704.197C511.135 701.984 514.039 700.877 517.633 700.877C521.279 700.877 524.195 701.984 526.383 704.197C528.596 706.385 529.703 709.262 529.703 712.83V715.643C529.703 719.054 528.596 721.854 526.383 724.041C524.195 726.229 521.305 727.322 517.711 727.322C514.195 727.322 511.292 726.255 509 724.119C506.734 721.958 505.602 719.054 505.602 715.408V712.635ZM512.242 715.643C512.242 717.439 512.737 718.898 513.727 720.018C514.742 721.111 516.07 721.658 517.711 721.658C519.326 721.658 520.628 721.111 521.617 720.018C522.607 718.898 523.102 717.387 523.102 715.486V712.635C523.102 710.838 522.594 709.38 521.578 708.26C520.589 707.14 519.273 706.58 517.633 706.58C515.992 706.58 514.677 707.153 513.688 708.299C512.724 709.419 512.242 710.903 512.242 712.752V715.643ZM532.945 744.627C532.945 741.137 534.078 738.312 536.344 736.15C538.609 733.989 541.5 732.908 545.016 732.908C548.557 732.908 551.448 733.989 553.688 736.15C555.953 738.312 557.086 741.229 557.086 744.9V747.674C557.086 751.059 555.992 753.859 553.805 756.072C551.643 758.26 548.74 759.354 545.094 759.354C541.448 759.354 538.505 758.273 536.266 756.111C534.052 753.924 532.945 751.046 532.945 747.479V744.627ZM539.586 747.674C539.586 749.445 540.094 750.903 541.109 752.049C542.151 753.169 543.479 753.729 545.094 753.729C546.76 753.729 548.062 753.195 549 752.127C549.964 751.033 550.445 749.51 550.445 747.557V744.627C550.445 742.804 549.938 741.346 548.922 740.252C547.906 739.158 546.604 738.611 545.016 738.611C543.401 738.611 542.086 739.158 541.07 740.252C540.081 741.346 539.586 742.856 539.586 744.783V747.674ZM519.664 754.314L514.781 751.502L542.555 707.049L547.438 709.861L519.664 754.314ZM597.164 706.033V716.307H604.625V723.338H597.164V746.932C597.164 748.546 597.477 749.718 598.102 750.447C598.753 751.15 599.898 751.502 601.539 751.502C602.633 751.502 603.74 751.372 604.859 751.111V758.455C602.698 759.054 600.615 759.354 598.609 759.354C591.318 759.354 587.672 755.33 587.672 747.283V723.338H580.719V716.307H587.672V706.033H597.164ZM634.039 724.979C632.789 724.77 631.5 724.666 630.172 724.666C625.823 724.666 622.893 726.333 621.383 729.666V758.572H611.891V716.307H620.953L621.188 721.033C623.479 717.361 626.656 715.525 630.719 715.525C632.073 715.525 633.193 715.708 634.078 716.072L634.039 724.979ZM657.867 759.354C651.852 759.354 646.969 757.465 643.219 753.689C639.495 749.887 637.633 744.835 637.633 738.533V737.361C637.633 733.143 638.44 729.38 640.055 726.072C641.695 722.739 643.987 720.148 646.93 718.299C649.872 716.45 653.154 715.525 656.773 715.525C662.529 715.525 666.969 717.361 670.094 721.033C673.245 724.705 674.82 729.9 674.82 736.619V740.447H647.203C647.49 743.937 648.648 746.697 650.68 748.729C652.737 750.76 655.315 751.775 658.414 751.775C662.763 751.775 666.305 750.018 669.039 746.502L674.156 751.385C672.464 753.911 670.198 755.877 667.359 757.283C664.547 758.663 661.383 759.354 657.867 759.354ZM656.734 723.143C654.13 723.143 652.021 724.054 650.406 725.877C648.818 727.7 647.802 730.239 647.359 733.494H665.445V732.791C665.237 729.614 664.391 727.218 662.906 725.604C661.422 723.963 659.365 723.143 656.734 723.143ZM669.547 709.393V709.822H661.93L656.07 703.729L650.25 709.822H642.711V709.314L653.297 698.533H658.883L669.547 709.393ZM691.031 716.307L691.305 721.189C694.43 717.413 698.531 715.525 703.609 715.525C712.411 715.525 716.891 720.564 717.047 730.643V758.572H707.555V731.189C707.555 728.507 706.969 726.528 705.797 725.252C704.651 723.95 702.763 723.299 700.133 723.299C696.305 723.299 693.453 725.031 691.578 728.494V758.572H682.086V716.307H691.031ZM755.602 716.307L755.875 720.721C758.844 717.257 762.906 715.525 768.062 715.525C773.714 715.525 777.581 717.687 779.664 722.01C782.737 717.687 787.06 715.525 792.633 715.525C797.294 715.525 800.758 716.814 803.023 719.393C805.315 721.971 806.487 725.773 806.539 730.799V758.572H797.047V731.072C797.047 728.39 796.461 726.424 795.289 725.174C794.117 723.924 792.177 723.299 789.469 723.299C787.307 723.299 785.536 723.885 784.156 725.057C782.802 726.202 781.852 727.713 781.305 729.588L781.344 758.572H771.852V730.76C771.721 725.786 769.182 723.299 764.234 723.299C760.432 723.299 757.737 724.848 756.148 727.947V758.572H746.656V716.307H755.602ZM814.508 737.049C814.508 732.908 815.328 729.184 816.969 725.877C818.609 722.544 820.914 719.992 823.883 718.221C826.852 716.424 830.263 715.525 834.117 715.525C839.82 715.525 844.443 717.361 847.984 721.033C851.552 724.705 853.479 729.575 853.766 735.643L853.805 737.869C853.805 742.036 852.997 745.76 851.383 749.041C849.794 752.322 847.503 754.861 844.508 756.658C841.539 758.455 838.102 759.354 834.195 759.354C828.232 759.354 823.453 757.374 819.859 753.416C816.292 749.432 814.508 744.132 814.508 737.518V737.049ZM824 737.869C824 742.218 824.898 745.63 826.695 748.104C828.492 750.551 830.992 751.775 834.195 751.775C837.398 751.775 839.885 750.525 841.656 748.025C843.453 745.525 844.352 741.867 844.352 737.049C844.352 732.778 843.427 729.393 841.578 726.893C839.755 724.393 837.268 723.143 834.117 723.143C831.018 723.143 828.557 724.38 826.734 726.854C824.911 729.301 824 732.973 824 737.869ZM828.648 768.064C828.648 766.684 829.104 765.525 830.016 764.588C830.953 763.676 832.281 763.221 834 763.221C835.719 763.221 837.047 763.676 837.984 764.588C838.922 765.525 839.391 766.684 839.391 768.064C839.391 769.445 838.922 770.59 837.984 771.502C837.047 772.413 835.719 772.869 834 772.869C832.281 772.869 830.953 772.413 830.016 771.502C829.104 770.59 828.648 769.445 828.648 768.064ZM871.93 758.572H862.438V716.307H871.93V758.572ZM861.852 705.33C861.852 703.872 862.307 702.661 863.219 701.697C864.156 700.734 865.484 700.252 867.203 700.252C868.922 700.252 870.25 700.734 871.188 701.697C872.125 702.661 872.594 703.872 872.594 705.33C872.594 706.762 872.125 707.96 871.188 708.924C870.25 709.861 868.922 710.33 867.203 710.33C865.484 710.33 864.156 709.861 863.219 708.924C862.307 707.96 861.852 706.762 861.852 705.33ZM944.312 710.76H937.477V758.572H928.883L928.414 754.197C925.576 757.635 921.786 759.354 917.047 759.354C912.099 759.354 908.089 757.361 905.016 753.377C901.969 749.393 900.445 743.976 900.445 737.127C900.445 730.617 901.956 725.395 904.977 721.463C907.997 717.505 912.047 715.525 917.125 715.525C921.604 715.525 925.224 717.088 927.984 720.213V710.76H918.18V704.119H927.984V698.572H937.477V704.119H944.312V710.76ZM909.938 737.947C909.938 742.244 910.758 745.604 912.398 748.025C914.065 750.421 916.422 751.619 919.469 751.619C923.349 751.619 926.188 749.887 927.984 746.424V728.377C926.24 724.992 923.427 723.299 919.547 723.299C916.474 723.299 914.104 724.523 912.438 726.971C910.771 729.393 909.938 733.051 909.938 737.947ZM949.742 737.049C949.742 732.856 950.549 729.119 952.164 725.838C953.805 722.531 956.109 719.992 959.078 718.221C962.047 716.424 965.458 715.525 969.312 715.525C975.172 715.525 979.898 717.465 983.492 721.346C984.872 720.851 985.875 719.913 986.5 718.533C987.125 717.153 987.438 714.979 987.438 712.01H993.961C993.961 715.499 993.388 718.416 992.242 720.76C991.096 723.077 989.182 724.718 986.5 725.682C988.141 728.937 988.987 732.622 989.039 736.736V737.869C989.039 742.036 988.232 745.76 986.617 749.041C985.029 752.322 982.724 754.861 979.703 756.658C976.708 758.455 973.271 759.354 969.391 759.354C963.479 759.354 958.727 757.387 955.133 753.455C951.539 749.523 949.742 744.21 949.742 737.518V737.049ZM959.195 737.869C959.195 742.218 960.094 745.63 961.891 748.104C963.688 750.551 966.188 751.775 969.391 751.775C972.594 751.775 975.081 750.525 976.852 748.025C978.648 745.525 979.547 741.867 979.547 737.049C979.547 732.7 978.622 729.301 976.773 726.854C974.951 724.38 972.464 723.143 969.312 723.143C966.214 723.143 963.753 724.38 961.93 726.854C960.107 729.301 959.195 732.973 959.195 737.869ZM1006.5 716.307L1006.77 721.189C1009.9 717.413 1014 715.525 1019.08 715.525C1027.88 715.525 1032.36 720.564 1032.52 730.643V758.572H1023.02V731.189C1023.02 728.507 1022.44 726.528 1021.27 725.252C1020.12 723.95 1018.23 723.299 1015.6 723.299C1011.77 723.299 1008.92 725.031 1007.05 728.494V758.572H997.555V716.307H1006.5ZM1071.5 720.916C1074.6 717.322 1078.52 715.525 1083.26 715.525C1092.27 715.525 1096.84 720.669 1096.97 730.955V758.572H1087.48V731.307C1087.48 728.39 1086.84 726.333 1085.56 725.135C1084.31 723.911 1082.46 723.299 1080.02 723.299C1076.21 723.299 1073.38 724.992 1071.5 728.377V758.572H1062.01V698.572H1071.5V720.916ZM1131.85 758.572C1131.43 757.765 1131.07 756.45 1130.76 754.627C1127.74 757.778 1124.04 759.354 1119.66 759.354C1115.42 759.354 1111.96 758.143 1109.27 755.721C1106.59 753.299 1105.25 750.304 1105.25 746.736C1105.25 742.231 1106.92 738.781 1110.25 736.385C1113.61 733.963 1118.4 732.752 1124.62 732.752H1130.45V729.979C1130.45 727.791 1129.83 726.046 1128.61 724.744C1127.39 723.416 1125.52 722.752 1123.02 722.752C1120.86 722.752 1119.09 723.299 1117.71 724.393C1116.33 725.46 1115.64 726.827 1115.64 728.494H1106.15C1106.15 726.176 1106.92 724.015 1108.45 722.01C1109.99 719.979 1112.07 718.39 1114.7 717.244C1117.36 716.098 1120.32 715.525 1123.57 715.525C1128.52 715.525 1132.46 716.775 1135.41 719.275C1138.35 721.749 1139.86 725.239 1139.94 729.744V748.807C1139.94 752.609 1140.47 755.643 1141.54 757.908V758.572H1131.85ZM1121.42 751.736C1123.3 751.736 1125.05 751.281 1126.7 750.369C1128.36 749.458 1129.61 748.234 1130.45 746.697V738.729H1125.33C1121.81 738.729 1119.17 739.34 1117.4 740.564C1115.63 741.788 1114.74 743.52 1114.74 745.76C1114.74 747.583 1115.34 749.041 1116.54 750.135C1117.76 751.202 1119.39 751.736 1121.42 751.736ZM1128.84 710.408H1120.95L1110.41 698.572H1121.23L1128.84 710.408ZM1158.69 716.307L1158.96 721.189C1162.09 717.413 1166.19 715.525 1171.27 715.525C1180.07 715.525 1184.55 720.564 1184.7 730.643V758.572H1175.21V731.189C1175.21 728.507 1174.62 726.528 1173.45 725.252C1172.31 723.95 1170.42 723.299 1167.79 723.299C1163.96 723.299 1161.11 725.031 1159.23 728.494V758.572H1149.74V716.307H1158.69ZM1192.75 737.127C1192.75 730.564 1194.29 725.33 1197.36 721.424C1200.46 717.492 1204.56 715.525 1209.66 715.525C1214.48 715.525 1218.27 717.205 1221.03 720.564L1221.46 716.307H1230.02V757.283C1230.02 762.83 1228.28 767.205 1224.82 770.408C1221.38 773.611 1216.73 775.213 1210.88 775.213C1207.78 775.213 1204.74 774.562 1201.77 773.26C1198.83 771.984 1196.59 770.304 1195.05 768.221L1199.55 762.518C1202.46 765.981 1206.06 767.713 1210.33 767.713C1213.48 767.713 1215.97 766.854 1217.79 765.135C1219.61 763.442 1220.52 760.942 1220.52 757.635V754.783C1217.79 757.83 1214.14 759.354 1209.59 759.354C1204.64 759.354 1200.59 757.387 1197.44 753.455C1194.31 749.523 1192.75 744.08 1192.75 737.127ZM1202.2 737.947C1202.2 742.192 1203.06 745.538 1204.78 747.986C1206.53 750.408 1208.93 751.619 1212.01 751.619C1215.84 751.619 1218.67 749.979 1220.52 746.697V728.104C1218.73 724.9 1215.91 723.299 1212.09 723.299C1208.96 723.299 1206.53 724.536 1204.78 727.01C1203.06 729.484 1202.2 733.13 1202.2 737.947Z" fill="white"/>
<path d="M168.094 409.88C163.465 415.915 157.049 420.485 148.846 423.591C140.643 426.696 131.326 428.249 120.896 428.249C110.174 428.249 100.682 425.817 92.4199 420.954C84.1582 416.091 77.7715 409.147 73.2598 400.124C68.8066 391.042 66.4922 380.466 66.3164 368.396V358.376C66.3164 339.04 70.9453 323.952 80.2031 313.112C89.4609 302.214 102.381 296.765 118.963 296.765C133.201 296.765 144.51 300.28 152.889 307.312C161.268 314.343 166.307 324.479 168.006 337.722H146.209C143.748 322.312 134.812 314.606 119.402 314.606C109.441 314.606 101.854 318.21 96.6387 325.417C91.4824 332.565 88.8164 343.083 88.6406 356.97V366.813C88.6406 380.642 91.541 391.394 97.3418 399.069C103.201 406.687 111.316 410.495 121.688 410.495C133.055 410.495 141.141 407.917 145.945 402.761V377.712H119.578V360.837H168.094V409.88ZM215.994 426.491H193.846V298.522H215.994V426.491ZM316.541 396.696H266.971L256.6 426.491H233.484L281.824 298.522H301.775L350.203 426.491H327L316.541 396.696ZM273.211 378.767H310.301L291.756 325.681L273.211 378.767ZM393.621 298.522L430.535 396.608L467.361 298.522H496.102V426.491H473.953V384.304L476.15 327.878L438.357 426.491H422.449L384.744 327.966L386.941 384.304V426.491H364.793V298.522H393.621ZM620.555 409.88C615.926 415.915 609.51 420.485 601.307 423.591C593.104 426.696 583.787 428.249 573.357 428.249C562.635 428.249 553.143 425.817 544.881 420.954C536.619 416.091 530.232 409.147 525.721 400.124C521.268 391.042 518.953 380.466 518.777 368.396V358.376C518.777 339.04 523.406 323.952 532.664 313.112C541.922 302.214 554.842 296.765 571.424 296.765C585.662 296.765 596.971 300.28 605.35 307.312C613.729 314.343 618.768 324.479 620.467 337.722H598.67C596.209 322.312 587.273 314.606 571.863 314.606C561.902 314.606 554.314 318.21 549.1 325.417C543.943 332.565 541.277 343.083 541.102 356.97V366.813C541.102 380.642 544.002 391.394 549.803 399.069C555.662 406.687 563.777 410.495 574.148 410.495C585.516 410.495 593.602 407.917 598.406 402.761V377.712H572.039V360.837H620.555V409.88ZM668.455 426.491H646.307V298.522H668.455V426.491ZM769.002 396.696H719.432L709.061 426.491H685.945L734.285 298.522H754.236L802.664 426.491H779.461L769.002 396.696ZM725.672 378.767H762.762L744.217 325.681L725.672 378.767ZM899.871 426.491H813.826V411.813L856.453 365.319C862.605 358.464 866.971 352.751 869.549 348.181C872.186 343.552 873.504 338.923 873.504 334.294C873.504 328.2 871.775 323.278 868.318 319.528C864.92 315.778 860.32 313.903 854.52 313.903C847.605 313.903 842.244 316.013 838.436 320.231C834.627 324.45 832.723 330.222 832.723 337.546H811.365C811.365 329.753 813.123 322.751 816.639 316.54C820.213 310.271 825.281 305.407 831.844 301.95C838.465 298.493 846.082 296.765 854.695 296.765C867.117 296.765 876.902 299.899 884.051 306.169C891.258 312.38 894.861 320.993 894.861 332.009C894.861 338.396 893.045 345.104 889.412 352.136C885.838 359.108 879.949 367.048 871.746 375.954L840.457 409.44H899.871V426.491ZM999.539 372.614C999.539 391.013 996.082 404.899 989.168 414.274C982.312 423.591 971.854 428.249 957.791 428.249C943.963 428.249 933.533 423.708 926.502 414.626C919.529 405.485 915.955 391.979 915.779 374.108V351.96C915.779 333.562 919.207 319.763 926.062 310.563C932.977 301.364 943.494 296.765 957.615 296.765C971.619 296.765 982.049 301.247 988.904 310.212C995.818 319.177 999.363 332.595 999.539 350.466V372.614ZM978.182 348.708C978.182 336.696 976.541 327.907 973.26 322.341C969.979 316.716 964.764 313.903 957.615 313.903C950.643 313.903 945.516 316.569 942.234 321.901C938.953 327.175 937.225 335.437 937.049 346.687V375.69C937.049 387.644 938.719 396.55 942.059 402.409C945.398 408.269 950.643 411.198 957.791 411.198C964.646 411.198 969.715 408.503 972.996 403.112C976.277 397.663 978.006 389.167 978.182 377.624V348.708Z" fill="#FF929B"/>
</svg>
